<?xml version="1.0" standalone="no"?>
<!DOCTYPE svg PUBLIC "-//W3C//DTD SVG 20010904//EN"
 "http://www.w3.org/TR/2001/REC-SVG-20010904/DTD/svg10.dtd">
<svg version="1.0" xmlns="http://www.w3.org/2000/svg"
 width="495.000000pt" height="503.000000pt" viewBox="0 0 495.000000 503.000000"
 preserveAspectRatio="xMidYMid meet">

<g transform="translate(0.000000,503.000000) scale(0.100000,-0.100000)"
fill="#000000" stroke="none">
<path d="M2400 4856 c-820 -288 -1537 -811 -2151 -1567 l-101 -124 7 -155 c42
-1064 230 -1666 763 -2450 l118 -174 60 -18 c564 -171 1111 -248 1551 -219
299 19 560 58 873 130 155 36 381 100 396 112 9 7 58 85 111 172 420 704 618
1252 717 1977 27 199 41 328 51 455 3 44 8 98 11 121 6 39 2 45 -77 145 -485
612 -985 1027 -1609 1338 -241 119 -620 283 -648 280 -4 0 -36 -11 -72 -23z
m115 -515 l29 -91 85 0 c47 0 91 -4 98 -8 8 -5 -12 -27 -62 -66 -41 -32 -75
-61 -75 -63 0 -2 12 -45 26 -94 14 -50 24 -93 21 -95 -2 -2 -39 20 -81 51
l-78 55 -79 -56 c-46 -32 -79 -50 -79 -42 0 8 11 52 25 99 19 67 22 86 12 94
-107 84 -136 110 -130 116 5 5 48 9 97 11 l89 3 30 92 c17 51 33 90 37 88 3
-2 19 -44 35 -94z m-470 -350 l29 -91 91 0 c51 0 95 -3 98 -6 3 -4 -24 -31
-61 -61 -37 -30 -71 -59 -75 -63 -5 -4 3 -50 17 -101 14 -51 23 -95 21 -97 -3
-3 -39 21 -81 53 l-76 57 -27 -19 c-119 -88 -131 -95 -131 -76 0 10 11 54 24
98 l23 79 -73 59 c-41 32 -74 63 -74 68 0 5 42 9 94 9 l94 0 32 95 c18 52 36
93 39 90 4 -2 20 -44 36 -94z m965 4 l32 -95 92 0 c51 0 95 -3 99 -6 3 -3 -28
-33 -69 -65 -41 -33 -74 -65 -74 -72 0 -7 11 -51 24 -100 13 -48 22 -87 19
-87 -3 0 -35 21 -71 48 -36 26 -71 50 -78 55 -7 4 -30 -6 -56 -26 -74 -56
-109 -79 -113 -75 -2 2 7 41 21 88 13 46 24 89 24 96 0 6 -31 38 -70 69 -38
31 -70 61 -70 66 0 5 42 9 94 9 l94 0 32 95 c17 52 33 95 35 95 2 0 18 -43 35
-95z m-1641 -507 c-52 -101 -126 -212 -152 -232 -18 -13 -71 -42 -120 -64
-106 -50 -143 -75 -162 -113 -9 -16 -14 -29 -12 -29 2 0 22 18 44 39 28 28 59
45 108 60 73 23 203 46 212 38 10 -11 -20 -49 -72 -88 -60 -45 -165 -79 -247
-79 -53 0 -43 11 -126 -135 -28 -49 -54 -103 -58 -118 -12 -49 20 -29 68 43
46 70 83 96 181 129 42 14 57 16 57 7 0 -19 -68 -127 -102 -163 -37 -38 -106
-73 -145 -73 -40 0 -48 -9 -62 -64 -7 -27 -19 -62 -27 -77 -7 -15 -14 -40 -14
-54 0 -28 29 -99 37 -91 2 2 11 30 20 62 27 104 46 130 139 190 110 71 118 74
109 43 -17 -57 -95 -208 -125 -243 -18 -20 -54 -51 -79 -68 -60 -41 -61 -43
-61 -110 0 -31 -5 -69 -12 -83 -9 -21 -8 -41 7 -103 l19 -77 7 75 c12 122 22
144 112 258 60 76 67 71 67 -49 0 -76 -4 -93 -31 -147 -16 -34 -50 -83 -75
-111 l-45 -50 7 -65 c5 -48 2 -78 -10 -116 -14 -44 -15 -54 -2 -78 8 -15 24
-36 36 -47 l21 -19 -6 59 c-9 81 21 192 82 307 48 88 48 89 60 61 6 -15 15
-55 18 -89 12 -104 -40 -262 -103 -314 -24 -20 -33 -34 -29 -47 49 -158 96
-251 128 -253 3 0 -2 24 -12 53 -10 28 -18 64 -19 79 0 25 71 252 83 264 9 10
40 -110 45 -173 4 -63 -26 -194 -48 -208 -21 -13 -10 -89 19 -140 35 -60 67
-91 104 -100 31 -8 33 -3 12 28 -26 41 -55 139 -54 186 0 25 8 71 17 101 l18
54 21 -30 c51 -71 67 -132 68 -251 0 -102 2 -114 24 -140 13 -15 38 -51 57
-80 33 -51 111 -123 133 -123 18 0 13 10 -14 32 -35 27 -81 122 -94 193 -13
72 -14 155 -2 155 17 0 93 -104 125 -170 27 -58 31 -75 31 -155 l-1 -90 52
-45 c55 -49 113 -125 134 -178 12 -31 11 -35 -13 -60 -25 -25 -27 -25 -46 -8
-11 10 -23 32 -27 50 -17 84 -79 159 -213 260 l-74 55 -63 -6 c-120 -11 -240
28 -349 114 l-60 47 40 9 c22 5 76 7 120 4 88 -4 127 -20 226 -90 31 -22 62
-38 68 -36 6 2 -11 32 -39 65 -43 53 -58 64 -108 79 -31 10 -67 25 -79 32 -13
9 -53 15 -100 17 -117 3 -180 35 -271 138 -74 83 -85 103 -54 95 9 -3 49 -11
87 -17 89 -16 176 -57 241 -114 l52 -45 -19 36 c-11 21 -19 43 -19 50 0 33
-100 92 -156 93 -35 0 -97 37 -132 78 -13 15 -36 54 -53 87 -16 33 -45 82 -64
109 -19 26 -35 52 -35 57 0 4 40 -12 89 -36 100 -49 168 -116 216 -210 15 -30
29 -55 30 -55 5 0 -16 82 -29 113 -8 18 -35 59 -60 91 -25 32 -49 69 -52 82
-4 14 -26 36 -53 53 -92 56 -140 139 -152 261 -5 47 -11 102 -15 123 -3 20 -2
37 3 37 12 -1 94 -103 126 -158 33 -57 67 -161 69 -213 2 -50 25 -52 34 -4 9
49 -2 110 -31 170 -14 28 -31 82 -39 120 -10 46 -21 73 -33 80 -36 20 -85 82
-115 145 -27 57 -32 79 -36 170 l-5 104 62 -69 c66 -76 88 -127 111 -263 9
-58 15 -71 25 -62 7 6 16 27 20 47 9 47 -50 240 -81 265 -11 9 -36 45 -54 80
-31 57 -35 72 -38 163 -3 72 0 110 10 135 l15 35 31 -61 c45 -88 69 -169 78
-254 7 -75 7 -75 21 -43 7 18 17 75 21 125 9 92 8 94 -26 172 -52 119 -52 143
-7 237 22 43 40 77 42 76 1 -2 12 -50 24 -108 20 -98 21 -175 4 -235 -3 -10
22 35 54 101 33 66 60 134 60 151 1 18 -8 51 -19 75 -24 53 -25 99 -5 165 15
49 53 120 60 112 2 -2 12 -51 21 -108 16 -97 16 -110 1 -160 -9 -30 -15 -55
-14 -56 1 -1 26 14 55 33 40 26 58 46 73 79 41 98 74 131 177 184 112 57 128
61 111 28z m2508 -13 c13 -9 32 -13 46 -10 29 8 87 -37 87 -66 0 -26 -25 -64
-57 -84 -23 -15 -26 -15 -43 0 -16 15 -17 14 -13 -9 6 -29 -12 -40 -90 -51
-47 -7 -47 -7 -62 28 -11 27 -12 42 -4 66 6 17 14 31 19 31 4 0 10 18 14 39
10 62 58 88 103 56z m-1874 -195 c61 -52 123 -142 149 -217 18 -55 23 -89 23
-178 0 -101 -3 -115 -29 -170 -55 -114 -30 -234 74 -365 63 -79 72 -100 41
-100 -20 0 -45 -23 -35 -33 3 -3 17 -2 31 4 32 12 33 12 33 -5 0 -7 -7 -19
-15 -26 -32 -26 -7 -112 41 -143 24 -15 54 -75 54 -108 -1 -38 -13 -57 -52
-83 l-28 -18 -19 45 c-11 25 -29 77 -41 116 -27 91 -73 158 -196 284 -84 85
-108 117 -142 187 -67 139 -66 237 3 349 45 74 64 137 71 241 6 81 5 89 -30
176 -20 50 -36 97 -36 103 0 15 47 -12 103 -59z m1085 -27 c-48 -120 -52 -149
-33 -251 17 -91 31 -128 77 -202 36 -58 51 -145 37 -214 -22 -105 -71 -185
-182 -298 -126 -129 -164 -185 -206 -308 -18 -52 -39 -105 -47 -118 -14 -21
-15 -22 -41 -5 -32 21 -53 69 -46 106 3 15 24 49 48 75 67 75 83 125 50 152
-8 7 -15 19 -15 26 0 10 6 11 26 3 30 -11 39 -7 31 16 -4 8 -16 15 -27 15 -33
0 -24 28 32 94 57 68 80 114 104 205 17 68 14 87 -32 186 -19 41 -24 67 -24
140 0 153 41 264 134 363 49 53 135 117 144 107 2 -2 -11 -44 -30 -92z m927 6
c5 -5 26 -9 47 -9 29 0 45 -7 63 -26 35 -37 31 -58 -17 -104 l-41 -41 -22 21
c-29 27 -36 25 -29 -9 7 -35 -9 -47 -83 -57 -45 -6 -52 -4 -62 14 -14 26 -14
89 -1 97 5 3 15 25 21 48 6 23 16 48 22 56 24 29 75 34 102 10z m121 -234 c10
-8 33 -15 49 -15 54 0 103 -50 90 -91 -4 -11 -25 -33 -48 -50 l-41 -29 -27 26
-28 27 5 -35 c6 -33 4 -36 -26 -47 -53 -18 -108 -14 -120 8 -16 30 -12 76 9
102 10 13 24 41 30 61 18 56 65 75 107 43z m127 -247 c13 -13 36 -27 52 -33
35 -13 65 -52 68 -90 2 -27 -3 -33 -57 -59 l-58 -30 -17 23 c-18 23 -31 19
-31 -11 0 -14 -8 -18 -39 -18 -104 0 -134 27 -112 99 7 24 19 42 31 46 11 4
28 21 37 38 9 18 23 37 32 44 26 20 70 15 94 -9z m53 -283 c12 -13 23 -27 25
-32 2 -4 18 -15 34 -25 36 -20 61 -81 47 -113 -18 -39 -162 -64 -162 -28 0 15
-1 15 -13 -2 -11 -14 -21 -16 -52 -11 -66 13 -115 43 -115 71 0 41 22 74 61
92 21 10 41 26 45 36 7 23 62 48 89 41 11 -3 30 -16 41 -29z m-1 -280 c14 -13
25 -31 25 -38 0 -8 11 -18 25 -21 30 -8 55 -53 55 -100 0 -32 -3 -35 -47 -50
-66 -23 -100 -21 -114 6 l-12 22 -8 -21 c-7 -19 -12 -20 -48 -12 -21 5 -56 18
-75 30 -28 16 -36 27 -36 50 0 39 24 74 61 90 17 6 43 25 59 41 37 36 81 38
115 3z m-56 -281 c18 -15 31 -35 31 -49 0 -13 14 -37 30 -53 23 -24 30 -39 30
-69 0 -63 -15 -75 -90 -71 -63 3 -65 4 -68 32 l-4 28 -22 -21 c-21 -20 -23
-20 -53 -3 -17 9 -45 29 -63 45 -27 23 -31 32 -25 57 7 34 57 80 87 80 11 0
33 11 50 25 37 32 59 32 97 -1z m-74 -299 c16 -15 25 -35 25 -55 0 -18 9 -43
20 -57 24 -31 25 -64 4 -105 -15 -29 -18 -30 -63 -25 -26 3 -60 11 -75 18 -24
12 -27 17 -23 46 l6 34 -30 -21 -29 -21 -50 51 c-27 28 -50 56 -50 62 0 5 16
26 35 45 32 32 40 35 75 30 27 -3 43 -1 51 9 19 23 77 17 104 -11z m-1686
-254 c-10 -49 -11 -66 -1 -81 17 -28 15 -31 -15 -24 -35 8 -64 40 -56 62 8 22
76 113 80 108 3 -2 -1 -32 -8 -65z m52 37 c11 -13 28 -40 40 -61 15 -30 17
-42 8 -58 -8 -16 -17 -19 -37 -14 -47 11 -54 26 -46 94 3 33 9 61 11 61 3 0
13 -10 24 -22z m1471 -7 c26 -24 32 -35 30 -67 0 -22 6 -53 15 -70 18 -36 13
-69 -18 -108 -24 -31 -42 -30 -117 6 -42 20 -43 22 -37 55 l6 34 -30 -15 c-29
-16 -30 -15 -55 17 -38 50 -46 78 -30 109 18 35 66 60 98 52 14 -3 33 -1 43 5
31 18 61 12 95 -18z m-2194 -127 c39 -44 29 -54 -32 -29 -32 14 -39 14 -66 0
-16 -8 -39 -15 -51 -15 -27 0 -96 46 -111 73 -9 18 -8 19 18 13 66 -16 81 -17
114 -3 30 13 39 13 70 1 19 -8 45 -26 58 -40z m79 41 c33 -14 40 -14 79 1 54
21 87 13 131 -31 42 -42 36 -61 -13 -38 -32 16 -37 16 -83 -1 -56 -20 -73 -15
-128 37 -50 47 -46 57 14 32z m1218 -22 c16 3 38 8 48 12 34 14 17 -25 -25
-55 -46 -33 -70 -37 -119 -16 -29 12 -38 12 -72 -1 -21 -9 -41 -13 -44 -10
-12 12 27 55 67 75 39 19 44 19 78 5 20 -8 50 -13 67 -10z m241 1 c32 -13 44
-14 76 -3 54 18 59 3 13 -37 -51 -45 -77 -51 -126 -29 -37 17 -42 17 -75 2
-51 -25 -61 -11 -22 30 52 55 76 61 134 37z m387 -114 c9 0 31 0 47 1 47 3 82
-35 79 -86 -2 -22 1 -56 5 -76 8 -38 -7 -83 -36 -107 -15 -12 -68 9 -118 47
-24 19 -24 20 -7 56 22 46 18 53 -13 20 -13 -14 -27 -25 -31 -25 -12 0 -89
106 -89 123 0 8 12 25 27 37 23 18 36 21 73 16 25 -3 53 -6 63 -6z m-2088 -23
c17 1 51 4 77 8 44 7 48 6 90 -33 23 -22 40 -44 36 -47 -4 -4 -26 0 -49 9 -40
16 -45 16 -80 0 -46 -20 -77 -14 -124 27 -43 38 -46 54 -7 43 15 -4 41 -7 57
-7z m280 0 c17 0 48 4 71 8 48 8 94 -11 120 -51 23 -34 12 -40 -34 -20 -34 15
-41 16 -74 1 -21 -8 -45 -15 -55 -15 -24 0 -90 45 -104 72 -10 19 -9 20 17 12
16 -4 43 -8 59 -7z m580 -6 c3 -5 1 -12 -5 -16 -5 -3 -10 1 -10 9 0 18 6 21
15 7z m543 -6 c34 -14 43 -14 80 -1 53 19 58 1 10 -39 -54 -46 -73 -50 -119
-30 -41 19 -43 19 -111 -10 -48 -19 3 53 57 83 27 15 38 15 83 -3z m286 -1
c32 -16 37 -16 75 -1 54 22 59 7 11 -37 -49 -44 -79 -52 -118 -32 -39 20 -55
20 -93 0 -17 -8 -33 -13 -36 -10 -10 10 27 56 60 76 39 24 56 25 101 4z
m-1376 -108 c34 -18 88 -74 79 -82 -4 -4 -25 1 -47 11 -38 17 -43 17 -76 2
-19 -9 -41 -17 -50 -17 -30 0 -125 72 -112 86 3 2 25 -1 49 -7 36 -9 50 -9 79
4 45 20 46 20 78 3z m1182 -22 c37 -15 43 -15 80 0 71 28 43 -24 -37 -70 -32
-18 -33 -18 -76 3 -42 21 -43 21 -82 2 -46 -23 -45 -22 -45 -6 0 24 77 86 107
87 7 0 31 -7 53 -16z"/>
<path d="M1920 2795 c-9 -11 -10 -19 -3 -26 17 -17 48 -6 48 16 0 25 -28 31
-45 10z"/>
<path d="M1884 2705 c-8 -20 4 -35 26 -35 25 0 35 17 20 35 -16 19 -39 19 -46
0z"/>
<path d="M1887 2623 c-12 -12 -7 -31 10 -37 19 -8 48 17 39 33 -8 12 -39 15
-49 4z"/>
<path d="M1913 2544 c-17 -14 -17 -14 1 -29 14 -11 23 -12 33 -4 32 27 0 59
-34 33z"/>
<path d="M3054 2795 c-4 -9 -2 -21 4 -27 15 -15 44 -1 40 19 -4 23 -36 29 -44
8z"/>
<path d="M3091 2711 c-19 -12 -6 -41 19 -41 25 0 38 29 19 41 -8 5 -16 9 -19
9 -3 0 -11 -4 -19 -9z"/>
<path d="M3087 2623 c-12 -12 -7 -31 10 -37 19 -8 48 17 39 33 -8 12 -39 15
-49 4z"/>
<path d="M3073 2553 c-7 -3 -13 -13 -13 -23 0 -19 17 -30 38 -23 6 3 12 13 12
23 0 19 -17 30 -37 23z"/>
</g>
</svg>
